<?xml version="1.0" encoding="utf-8"?>
<svg version="1.1" xmlns:xlink="http://www.w3.org/1999/xlink" width="18px" height="16px" xmlns="http://www.w3.org/2000/svg">
  <g transform="matrix(1 0 0 1 -234 -38 )">
    <path d="M 2.57142857142857 2.24  C 4.24553571428571 2.24  5.61830357142857 2.99  6.68973214285714 4.49  C 6.28794642857143 5.10333333333333  5.82924107142857 6.01333333333333  5.31361607142857 7.22  C 5.16629464285714 6.92  5.04241071428572 6.67833333333333  4.94196428571429 6.495  C 4.84151785714286 6.31166666666667  4.70591517857143 6.1  4.53515625 5.86  C 4.36439732142857 5.62  4.19363839285714 5.43166666666666  4.02287946428571 5.295  C 3.85212053571429 5.15833333333333  3.64118303571429 5.04166666666666  3.39006696428571 4.945  C 3.13895089285714 4.84833333333333  2.86607142857143 4.8  2.57142857142857 4.8  L 0.321428571428571 4.8  C 0.227678571428571 4.8  0.150669642857143 4.77  0.0904017857142857 4.71  C 0.0301339285714286 4.65  0 4.57333333333333  0 4.48  L 0 2.56  C 0 2.46666666666667  0.0301339285714286 2.39  0.0904017857142857 2.33  C 0.150669642857143 2.27  0.227678571428571 2.24  0.321428571428571 2.24  L 2.57142857142857 2.24  Z M 17.9095982142857 12.25  C 17.9698660714286 12.31  18 12.3866666666667  18 12.48  C 18 12.5733333333333  17.9698660714286 12.65  17.9095982142857 12.71  L 14.6953125 15.91  C 14.6350446428571 15.97  14.5580357142857 16  14.4642857142857 16  C 14.3772321428571 16  14.3018973214286 15.9683333333333  14.23828125 15.905  C 14.1746651785714 15.8416666666667  14.1428571428571 15.7666666666667  14.1428571428571 15.68  L 14.1428571428571 13.76  C 13.9285714285714 13.76  13.6439732142857 13.7616666666667  13.2890625 13.765  C 12.9341517857143 13.7683333333333  12.6629464285714 13.7716666666667  12.4754464285714 13.775  C 12.2879464285714 13.7783333333333  12.0435267857143 13.775  11.7421875 13.765  C 11.4408482142857 13.755  11.203125 13.7383333333333  11.0290178571429 13.715  C 10.8549107142857 13.6916666666667  10.640625 13.6566666666667  10.3861607142857 13.61  C 10.1316964285714 13.5633333333333  9.92075892857143 13.5016666666667  9.75334821428572 13.425  C 9.5859375 13.3483333333333  9.39174107142857 13.2533333333333  9.17075892857143 13.14  C 8.94977678571429 13.0266666666667  8.75223214285714 12.8933333333333  8.578125 12.74  C 8.40401785714286 12.5866666666667  8.21986607142857 12.4083333333333  8.02566964285714 12.205  C 7.83147321428572 12.0016666666667  7.64397321428571 11.77  7.46316964285714 11.51  C 7.85825892857143 10.89  8.31361607142857 9.98  8.82924107142857 8.78  C 8.9765625 9.08  9.10044642857143 9.32166666666667  9.20089285714286 9.505  C 9.30133928571428 9.68833333333333  9.43694196428572 9.9  9.60770089285714 10.14  C 9.77845982142857 10.38  9.94921875 10.5683333333333  10.1199776785714 10.705  C 10.2907366071429 10.8416666666667  10.5016741071429 10.9583333333333  10.7527901785714 11.055  C 11.00390625 11.1516666666667  11.2767857142857 11.2  11.5714285714286 11.2  L 14.1428571428571 11.2  L 14.1428571428571 9.28  C 14.1428571428571 9.18666666666667  14.1729910714286 9.11  14.2332589285714 9.05  C 14.2935267857143 8.99  14.3705357142857 8.96  14.4642857142857 8.96  C 14.5446428571429 8.96  14.625 8.99333333333333  14.7053571428571 9.06  L 17.9095982142857 12.25  Z M 17.9095982142857 3.29  C 17.9698660714286 3.35  18 3.42666666666667  18 3.52  C 18 3.61333333333333  17.9698660714286 3.69  17.9095982142857 3.75  L 14.6953125 6.95  C 14.6350446428571 7.01  14.5580357142857 7.04  14.4642857142857 7.04  C 14.3772321428571 7.04  14.3018973214286 7.00833333333333  14.23828125 6.945  C 14.1746651785714 6.88166666666667  14.1428571428571 6.80666666666666  14.1428571428571 6.72  L 14.1428571428571 4.8  L 11.5714285714286 4.8  C 11.25 4.8  10.9587053571429 4.85  10.6975446428571 4.95  C 10.4363839285714 5.05  10.2053571428571 5.2  10.0044642857143 5.4  C 9.80357142857143 5.6  9.6328125 5.805  9.4921875 6.015  C 9.3515625 6.225  9.20089285714286 6.48333333333333  9.04017857142857 6.79  C 8.82589285714286 7.20333333333333  8.56473214285714 7.77333333333333  8.25669642857143 8.5  C 8.0625 8.94  7.89676339285714 9.31  7.75948660714286 9.61  C 7.62220982142857 9.91  7.44140625 10.26  7.21707589285714 10.66  C 6.99274553571429 11.06  6.77845982142857 11.3933333333333  6.57421875 11.66  C 6.36997767857143 11.9266666666667  6.12220982142857 12.2033333333333  5.83091517857143 12.49  C 5.53962053571429 12.7766666666667  5.23828125 13.005  4.92689732142857 13.175  C 4.61551339285714 13.345  4.25892857142857 13.485  3.85714285714286 13.595  C 3.45535714285714 13.705  3.02678571428571 13.76  2.57142857142857 13.76  L 0.321428571428571 13.76  C 0.227678571428571 13.76  0.150669642857143 13.73  0.0904017857142857 13.67  C 0.0301339285714286 13.61  0 13.5333333333333  0 13.44  L 0 11.52  C 0 11.4266666666667  0.0301339285714286 11.35  0.0904017857142857 11.29  C 0.150669642857143 11.23  0.227678571428571 11.2  0.321428571428571 11.2  L 2.57142857142857 11.2  C 2.89285714285714 11.2  3.18415178571429 11.15  3.4453125 11.05  C 3.70647321428571 10.95  3.9375 10.8  4.13839285714286 10.6  C 4.33928571428571 10.4  4.51004464285714 10.195  4.65066964285714 9.985  C 4.79129464285714 9.775  4.94196428571429 9.51666666666667  5.10267857142857 9.21  C 5.31696428571429 8.79666666666667  5.578125 8.22666666666667  5.88616071428571 7.5  C 6.08035714285714 7.06  6.24609375 6.69  6.38337053571429 6.39  C 6.52064732142857 6.09  6.70145089285714 5.74  6.92578125 5.34  C 7.15011160714286 4.94  7.36439732142857 4.60666666666667  7.56863839285714 4.34  C 7.77287946428571 4.07333333333333  8.02064732142857 3.79666666666667  8.31194196428571 3.51  C 8.60323660714286 3.22333333333333  8.90457589285714 2.995  9.21595982142857 2.825  C 9.52734375 2.655  9.88392857142857 2.515  10.2857142857143 2.405  C 10.6875 2.295  11.1160714285714 2.24  11.5714285714286 2.24  L 14.1428571428571 2.24  L 14.1428571428571 0.32  C 14.1428571428571 0.226666666666665  14.1729910714286 0.15  14.2332589285714 0.0899999999999999  C 14.2935267857143 0.0299999999999994  14.3705357142857 0  14.4642857142857 0  C 14.5446428571429 0  14.625 0.0333333333333332  14.7053571428571 0.0999999999999996  L 17.9095982142857 3.29  Z " fill-rule="nonzero" fill="#015478" stroke="none" transform="matrix(1 0 0 1 234 38 )" />
  </g>
</svg>