<?xml version="1.0" encoding="utf-8"?>
<svg version="1.1" xmlns:xlink="http://www.w3.org/1999/xlink" width="18px" height="18px" xmlns="http://www.w3.org/2000/svg">
  <g transform="matrix(1 0 0 1 -550 -251 )">
    <path d="M 11.89453125 14.89453125  C 11.96484375 14.82421875  12 14.734375  12 14.625  L 12 12.75  C 12 12.640625  11.96484375 12.55078125  11.89453125 12.48046875  C 11.82421875 12.41015625  11.734375 12.375  11.625 12.375  L 10.5 12.375  L 10.5 6.375  C 10.5 6.265625  10.46484375 6.17578125  10.39453125 6.10546875  C 10.32421875 6.03515625  10.234375 6  10.125 6  L 6.375 6  C 6.265625 6  6.17578125 6.03515625  6.10546875 6.10546875  C 6.03515625 6.17578125  6 6.265625  6 6.375  L 6 8.25  C 6 8.359375  6.03515625 8.44921875  6.10546875 8.51953125  C 6.17578125 8.58984375  6.265625 8.625  6.375 8.625  L 7.5 8.625  L 7.5 12.375  L 6.375 12.375  C 6.265625 12.375  6.17578125 12.41015625  6.10546875 12.48046875  C 6.03515625 12.55078125  6 12.640625  6 12.75  L 6 14.625  C 6 14.734375  6.03515625 14.82421875  6.10546875 14.89453125  C 6.17578125 14.96484375  6.265625 15  6.375 15  L 11.625 15  C 11.734375 15  11.82421875 14.96484375  11.89453125 14.89453125  Z M 10.39453125 4.39453125  C 10.46484375 4.32421875  10.5 4.234375  10.5 4.125  L 10.5 2.25  C 10.5 2.140625  10.46484375 2.05078125  10.39453125 1.98046875  C 10.32421875 1.91015625  10.234375 1.875  10.125 1.875  L 7.875 1.875  C 7.765625 1.875  7.67578125 1.91015625  7.60546875 1.98046875  C 7.53515625 2.05078125  7.5 2.140625  7.5 2.25  L 7.5 4.125  C 7.5 4.234375  7.53515625 4.32421875  7.60546875 4.39453125  C 7.67578125 4.46484375  7.765625 4.5  7.875 4.5  L 10.125 4.5  C 10.234375 4.5  10.32421875 4.46484375  10.39453125 4.39453125  Z M 16.79296875 4.482421875  C 17.59765625 5.861328125  18 7.3671875  18 9  C 18 10.6328125  17.59765625 12.138671875  16.79296875 13.517578125  C 15.98828125 14.896484375  14.896484375 15.98828125  13.517578125 16.79296875  C 12.138671875 17.59765625  10.6328125 18  9 18  C 7.3671875 18  5.861328125 17.59765625  4.482421875 16.79296875  C 3.103515625 15.98828125  2.01171875 14.896484375  1.20703125 13.517578125  C 0.40234375 12.138671875  0 10.6328125  0 9  C 0 7.3671875  0.40234375 5.861328125  1.20703125 4.482421875  C 2.01171875 3.103515625  3.103515625 2.01171875  4.482421875 1.20703125  C 5.861328125 0.402343749999998  7.3671875 0  9 0  C 10.6328125 0  12.138671875 0.402343749999998  13.517578125 1.20703125  C 14.896484375 2.01171875  15.98828125 3.103515625  16.79296875 4.482421875  Z " fill-rule="nonzero" fill="#015478" stroke="none" transform="matrix(1 0 0 1 550 251 )" />
  </g>
</svg>