<?xml version="1.0" encoding="utf-8"?>
<svg version="1.1" xmlns:xlink="http://www.w3.org/1999/xlink" width="22px" height="20px" xmlns="http://www.w3.org/2000/svg">
  <g transform="matrix(1 0 0 1 -572 -494 )">
    <path d="M 16.671875 18.0859375  C 16.8393429487179 17.9210069444444  16.9230769230769 17.7256944444444  16.9230769230769 17.5  C 16.9230769230769 17.2743055555556  16.8393429487179 17.0789930555556  16.671875 16.9140625  C 16.5044070512821 16.7491319444444  16.3060897435897 16.6666666666667  16.0769230769231 16.6666666666667  C 15.8477564102564 16.6666666666667  15.6494391025641 16.7491319444444  15.4819711538462 16.9140625  C 15.3145032051282 17.0789930555556  15.2307692307692 17.2743055555556  15.2307692307692 17.5  C 15.2307692307692 17.7256944444444  15.3145032051282 17.9210069444444  15.4819711538462 18.0859375  C 15.6494391025641 18.2508680555556  15.8477564102564 18.3333333333333  16.0769230769231 18.3333333333333  C 16.3060897435897 18.3333333333333  16.5044070512821 18.2508680555556  16.671875 18.0859375  Z M 20.0564903846154 18.0859375  C 20.2239583333333 17.9210069444444  20.3076923076923 17.7256944444444  20.3076923076923 17.5  C 20.3076923076923 17.2743055555556  20.2239583333333 17.0789930555556  20.0564903846154 16.9140625  C 19.8890224358974 16.7491319444444  19.6907051282051 16.6666666666667  19.4615384615385 16.6666666666667  C 19.2323717948718 16.6666666666667  19.0340544871795 16.7491319444444  18.8665865384615 16.9140625  C 18.6991185897436 17.0789930555556  18.6153846153846 17.2743055555556  18.6153846153846 17.5  C 18.6153846153846 17.7256944444444  18.6991185897436 17.9210069444444  18.8665865384615 18.0859375  C 19.0340544871795 18.2508680555556  19.2323717948718 18.3333333333333  19.4615384615385 18.3333333333333  C 19.6907051282051 18.3333333333333  19.8890224358974 18.2508680555556  20.0564903846154 18.0859375  Z M 21.6298076923077 13.6979166666667  C 21.8766025641026 13.9409722222222  22 14.2361111111111  22 14.5833333333333  L 22 18.75  C 22 19.0972222222222  21.8766025641026 19.3923611111111  21.6298076923077 19.6354166666667  C 21.3830128205128 19.8784722222222  21.0833333333333 20  20.7307692307692 20  L 1.26923076923077 20  C 0.916666666666667 20  0.61698717948718 19.8784722222222  0.370192307692308 19.6354166666667  C 0.123397435897436 19.3923611111111  0 19.0972222222222  0 18.75  L 0 14.5833333333333  C 0 14.2361111111111  0.123397435897436 13.9409722222222  0.370192307692308 13.6979166666667  C 0.61698717948718 13.4548611111111  0.916666666666667 13.3333333333333  1.26923076923077 13.3333333333333  L 7.41706730769231 13.3333333333333  L 9.20192307692308 15.1041666666667  C 9.71314102564103 15.5902777777778  10.3125 15.8333333333333  11 15.8333333333333  C 11.6875 15.8333333333333  12.286858974359 15.5902777777778  12.7980769230769 15.1041666666667  L 14.5961538461538 13.3333333333333  L 20.7307692307692 13.3333333333333  C 21.0833333333333 13.3333333333333  21.3830128205128 13.4548611111111  21.6298076923077 13.6979166666667  Z M 16.9230769230769 6.66666666666667  C 17.2932692307692 6.66666666666667  17.5532852564103 6.8359375  17.703125 7.17447916666667  C 17.8529647435897 7.53038194444444  17.791266025641 7.83420138888889  17.5180288461538 8.0859375  L 11.5949519230769 13.9192708333333  C 11.4362980769231 14.0842013888889  11.2379807692308 14.1666666666667  11 14.1666666666667  C 10.7620192307692 14.1666666666667  10.5637019230769 14.0842013888889  10.4050480769231 13.9192708333333  L 4.48197115384615 8.0859375  C 4.20873397435897 7.83420138888889  4.14703525641026 7.53038194444444  4.296875 7.17447916666667  C 4.44671474358974 6.8359375  4.70673076923077 6.66666666666667  5.07692307692308 6.66666666666667  L 8.46153846153846 6.66666666666667  L 8.46153846153846 0.833333333333333  C 8.46153846153846 0.607638888888886  8.54527243589744 0.412326388888886  8.71274038461539 0.247395833333333  C 8.88020833333333 0.082465277777779  9.07852564102564 0  9.30769230769231 0  L 12.6923076923077 0  C 12.9214743589744 0  13.1197916666667 0.082465277777779  13.2872596153846 0.247395833333333  C 13.4547275641026 0.412326388888886  13.5384615384615 0.607638888888886  13.5384615384615 0.833333333333333  L 13.5384615384615 6.66666666666667  L 16.9230769230769 6.66666666666667  Z " fill-rule="nonzero" fill="#015478" stroke="none" transform="matrix(1 0 0 1 572 494 )" />
  </g>
</svg>